<svg width="512" height="512" viewBox="0 0 512 512" fill="none" xmlns="http://www.w3.org/2000/svg">
<path d="M352.391 280.985C366.609 280.985 378.134 264.53 378.134 244.232C378.134 223.934 366.609 207.48 352.391 207.48C338.173 207.48 326.647 223.934 326.647 244.232C326.647 264.53 338.173 280.985 352.391 280.985Z" fill="#F4900C"/>
<path d="M33.1726 280.985C47.3903 280.985 58.916 264.53 58.916 244.232C58.916 223.934 47.3903 207.48 33.1726 207.48C18.9549 207.48 7.4292 223.934 7.4292 244.232C7.4292 264.53 18.9549 280.985 33.1726 280.985Z" fill="#F4900C"/>
<path d="M357.54 291.485C357.54 294.27 356.455 296.941 354.524 298.91C352.592 300.88 349.973 301.986 347.242 301.986H316.35C313.619 301.986 311 300.88 309.069 298.91C307.138 296.941 306.053 294.27 306.053 291.485V196.979C306.053 194.194 307.138 191.523 309.069 189.554C311 187.585 313.619 186.478 316.35 186.478H347.242C349.973 186.478 352.592 187.585 354.524 189.554C356.455 191.523 357.54 194.194 357.54 196.979V291.485ZM79.5107 291.485C79.5107 294.27 78.4258 296.941 76.4947 298.91C74.5636 300.88 71.9444 301.986 69.2134 301.986H38.3213C35.5903 301.986 32.9711 300.88 31.04 298.91C29.1088 296.941 28.0239 294.27 28.0239 291.485V196.979C28.0239 194.194 29.1088 191.523 31.04 189.554C32.9711 187.585 35.5903 186.478 38.3213 186.478H69.2134C71.9444 186.478 74.5636 187.585 76.4947 189.554C78.4258 191.523 79.5107 194.194 79.5107 196.979V291.485Z" fill="#FFAC33"/>
<path d="M295.755 144.475C295.755 173.468 249.644 186.478 192.782 186.478C135.909 186.478 89.8081 173.468 89.8081 144.475C89.8081 115.483 135.909 91.9719 192.782 91.9719C249.644 91.9719 295.755 115.483 295.755 144.475Z" fill="#FFCC4D"/>
<path d="M264.863 134.846C264.863 151.763 232.581 165.477 192.782 165.477C152.972 165.477 120.7 151.763 120.7 134.846C120.7 117.93 152.972 104.216 192.782 104.216C232.581 104.216 264.863 117.93 264.863 134.846Z" fill="#F4900C"/>
<path d="M316.35 149.726C316.35 164.227 304.827 165.477 290.607 165.477H94.9568C80.7361 165.477 69.2134 164.227 69.2134 149.726C69.2134 135.224 80.7361 123.474 94.9568 123.474H290.607C297.434 123.474 303.982 126.24 308.81 131.163C313.638 136.086 316.35 142.763 316.35 149.726Z" fill="#226699"/>
<path d="M316.35 154.976H69.2134C63.7513 154.976 58.513 157.189 54.6507 161.127C50.7885 165.066 48.6187 170.408 48.6187 175.978V448.996H336.945V175.978C336.945 170.408 334.775 165.066 330.913 161.127C327.051 157.189 321.812 154.976 316.35 154.976Z" fill="#55ACEE"/>
<path d="M367.837 438.495V427.994C367.837 422.424 365.667 417.083 361.805 413.144C357.943 409.206 352.704 406.993 347.242 406.993H234.702L200.062 442.317C199.107 443.293 197.972 444.068 196.722 444.596C195.473 445.124 194.134 445.396 192.782 445.396C191.429 445.396 190.09 445.124 188.841 444.596C187.592 444.068 186.457 443.293 185.501 442.317L150.861 406.993H38.3213C32.8592 406.993 27.6209 409.206 23.7586 413.144C19.8964 417.083 17.7266 422.424 17.7266 427.994V438.495C17.7266 450.088 16.6556 459.496 28.0239 459.496H357.54C368.908 459.496 367.837 450.088 367.837 438.495Z" fill="#3B88C3"/>
<path d="M259.715 291.485C285.306 291.485 306.053 270.329 306.053 244.232C306.053 218.135 285.306 196.979 259.715 196.979C234.123 196.979 213.376 218.135 213.376 244.232C213.376 270.329 234.123 291.485 259.715 291.485Z" fill="white"/>
<path d="M259.715 272.805C275.189 272.805 287.734 260.012 287.734 244.232C287.734 228.452 275.189 215.66 259.715 215.66C244.24 215.66 231.695 228.452 231.695 244.232C231.695 260.012 244.24 272.805 259.715 272.805Z" fill="#DD2E44"/>
<path d="M125.849 291.485C151.441 291.485 172.187 270.329 172.187 244.232C172.187 218.135 151.441 196.979 125.849 196.979C100.257 196.979 79.5107 218.135 79.5107 244.232C79.5107 270.329 100.257 291.485 125.849 291.485Z" fill="white"/>
<path d="M306.053 359.74C306.053 366.702 303.34 373.379 298.513 378.303C293.685 383.226 287.137 385.992 280.309 385.992H105.254C98.4266 385.992 91.8786 383.226 87.0508 378.303C82.223 373.379 79.5107 366.702 79.5107 359.74C79.5107 352.777 82.223 346.1 87.0508 341.177C91.8786 336.254 98.4266 333.488 105.254 333.488H280.309C287.137 333.488 293.685 336.254 298.513 341.177C303.34 346.1 306.053 352.777 306.053 359.74Z" fill="#F5F8FA"/>
<path d="M182.484 333.488H203.079V385.992H182.484V333.488ZM130.998 333.488H151.592V385.992H130.998V333.488ZM233.971 333.488H254.566V385.992H233.971V333.488ZM79.5107 359.74C79.5095 365.792 81.5588 371.658 85.3117 376.346C89.0647 381.034 94.2907 384.256 100.105 385.467V334.013C94.2907 335.223 89.0647 338.445 85.3117 343.133C81.5588 347.822 79.5095 353.688 79.5107 359.74ZM285.458 334.013V385.456C291.272 384.246 296.497 381.025 300.25 376.338C304.003 371.651 306.053 365.791 306.053 359.74C306.053 353.689 304.003 347.818 300.25 343.131C296.497 338.444 291.272 335.223 285.458 334.013Z" fill="#CCD6DD"/>
<path d="M125.849 272.805C141.323 272.805 153.868 260.012 153.868 244.232C153.868 228.452 141.323 215.66 125.849 215.66C110.374 215.66 97.8298 228.452 97.8298 244.232C97.8298 260.012 110.374 272.805 125.849 272.805Z" fill="#DD2E44"/>
<path d="M140.727 23.4394C-51.3671 75.9272 15.3758 270.95 15.3758 270.95C15.3758 270.95 53.3741 210.961 181.916 175.838C310.458 140.716 365.901 170.579 365.901 170.579C365.901 170.579 332.82 -29.0483 140.727 23.4394Z" fill="url(#paint0_radial_4_61)"/>
<path d="M221.626 158.558L136.177 181.906L98.9052 40.057C95.7635 28.1006 102.503 15.8786 113.964 12.7468L157.921 0.736172C169.382 -2.39558 181.212 4.75272 184.353 16.7091L221.626 158.558Z" fill="url(#paint1_linear_4_61)"/>
<path d="M74.0656 53.1492L98.6479 38.9753L124.486 134.897C107.354 93.3253 92.6249 64.7971 74.0656 53.1492Z" fill="#EDBF00"/>
<path d="M213.827 15.3157L183.981 15.4391L209.482 111.673C203.935 66.9355 203.466 34.8659 213.827 15.3157Z" fill="#EDBF00"/>
<path d="M374.582 157.367C373.082 155.848 371.12 154.914 369.072 154.326C282.982 129.988 175.087 161.077 175.087 161.077C175.087 161.077 66.4042 189.166 3.78141 254.138C2.25537 255.703 1.05463 257.501 0.50055 259.581C-0.663287 264.033 -0.545296 271.855 9.30194 280.51C9.30194 280.51 42.0678 221.721 180.278 180.833C319.991 145.827 377.221 179.979 377.221 179.979C381.506 167.463 377.773 160.629 374.582 157.367Z" fill="#FFEA00"/>
<path d="M282.679 504.678C273.56 514.044 259.053 514.486 250.451 505.65C241.848 496.815 242.278 481.915 251.397 472.549L421.554 297.785C430.672 288.419 445.179 287.977 453.781 296.813C462.384 305.648 461.954 320.548 452.835 329.913L282.679 504.678Z" fill="#F4900C"/>
<path d="M344.296 256.652C344.296 256.652 391.218 232.555 430.32 272.716L485.063 328.942C485.063 328.942 492.883 320.909 500.704 328.942L508.524 336.974C508.524 336.974 516.345 345.006 508.524 353.038L477.243 385.167C477.243 385.167 469.422 393.199 461.602 385.167L453.781 377.135C453.781 377.135 445.961 369.103 453.781 361.07L454.391 360.444C448.37 354.476 439.353 348.396 430.32 353.038L399.039 320.909C399.039 320.909 406.859 296.813 391.218 280.748C375.577 264.684 367.757 264.684 352.116 264.684C336.475 264.684 344.296 256.652 344.296 256.652Z" fill="#66757F"/>
<defs>
<radialGradient id="paint0_radial_4_61" cx="0" cy="0" r="1" gradientUnits="userSpaceOnUse" gradientTransform="translate(256.03 256.043) scale(206.768 374.555)">
<stop stop-color="#FFFF00"/>
<stop offset="0.325" stop-color="#FFF600"/>
<stop offset="0.854" stop-color="#FFDE00"/>
<stop offset="0.998" stop-color="#FFD600"/>
</radialGradient>
<linearGradient id="paint1_linear_4_61" x1="256.049" y1="9.86422" x2="256.049" y2="506.94" gradientUnits="userSpaceOnUse">
<stop stop-color="#FFFF00"/>
<stop offset="0.446" stop-color="#FFF900"/>
<stop offset="1" stop-color="#FFEA00"/>
</linearGradient>
</defs>
</svg>
